<svg xmlns="http://www.w3.org/2000/svg" xmlns:xlink="http://www.w3.org/1999/xlink" id="Layer_1" enable-background="new 0 0 48 48" viewBox="0 0 48 48"><defs id="defs25"><linearGradient id="linearGradient4134"><stop id="stop4136" offset="0" stop-color="#000092"/><stop id="stop4138" offset="1" stop-color="#ff00f3"/></linearGradient><linearGradient id="linearGradient4140" x1="2" x2="45" y1="24" y2="24" gradientUnits="userSpaceOnUse" xlink:href="#linearGradient4134"/></defs><path id="XMLID_315_" fill="url(#linearGradient4140)" d="M 3 2 C 2.4 2 2 2.4 2 3 L 2 9 C 2 9.6 2.4 10 3 10 C 3.6 10 4 9.6 4 9 L 4 4 L 9 4 C 9.6 4 10 3.6 10 3 C 10 2.4 9.6 2 9 2 L 3 2 z M 39 2 C 38.4 2 38 2.4 38 3 C 38 3.6 38.4 4 39 4 L 44 4 L 44 9 C 44 9.6 44.4 10 45 10 C 45.6 10 46 9.6 46 9 L 46 3 C 46 2.4 45.6 2 45 2 L 39 2 z M 7 6 C 6.4 6 6 6.4 6 7 L 6 41 C 6 41.6 6.4 42 7 42 C 7.6 42 8 41.6 8 41 L 8 7 C 8 6.4 7.6 6 7 6 z M 11 6 C 10.4 6 10 6.4 10 7 L 10 41 C 10 41.6 10.4 42 11 42 C 11.6 42 12 41.6 12 41 L 12 7 C 12 6.4 11.6 6 11 6 z M 15 6 C 14.4 6 14 6.4 14 7 L 14 36 C 14 36.6 14.4 37 15 37 C 15.6 37 16 36.6 16 36 L 16 7 C 16 6.4 15.6 6 15 6 z M 19 6 C 18.4 6 18 6.4 18 7 L 18 36 C 18 36.6 18.4 37 19 37 C 19.6 37 20 36.6 20 36 L 20 7 C 20 6.4 19.6 6 19 6 z M 25 6 C 24.4 6 24 6.4 24 7 L 24 36 C 24 36.6 24.4 37 25 37 C 25.6 37 26 36.6 26 36 L 26 7 C 26 6.4 25.6 6 25 6 z M 31 6 C 30.4 6 30 6.4 30 7 L 30 36 C 30 36.6 30.4 37 31 37 C 31.6 37 32 36.6 32 36 L 32 7 C 32 6.4 31.6 6 31 6 z M 37 6 C 36.4 6 36 6.4 36 7 L 36 36 C 36 36.6 36.4 37 37 37 C 37.6 37 38 36.6 38 36 L 38 7 C 38 6.4 37.6 6 37 6 z M 41 6 C 40.4 6 40 6.4 40 7 L 40 41 C 40 41.6 40.4 42 41 42 C 41.6 42 42 41.6 42 41 L 42 7 C 42 6.4 41.6 6 41 6 z M 3 38 C 2.4 38 2 38.4 2 39 L 2 45 C 2 45.6 2.4 46 3 46 L 9 46 C 9.6 46 10 45.6 10 45 C 10 44.4 9.6 44 9 44 L 4 44 L 4 39 C 4 38.4 3.6 38 3 38 z M 45 38 C 44.4 38 44 38.4 44 39 L 44 44 L 39 44 C 38.4 44 38 44.4 38 45 C 38 45.6 38.4 46 39 46 L 45 46 C 45.6 46 46 45.6 46 45 L 46 39 C 46 38.4 45.6 38 45 38 z M 15 39 C 14.4 39 14 39.4 14 40 L 14 41 C 14 41.6 14.4 42 15 42 C 15.6 42 16 41.6 16 41 L 16 40 C 16 39.4 15.6 39 15 39 z M 19 39 C 18.4 39 18 39.4 18 40 L 18 41 C 18 41.6 18.4 42 19 42 C 19.6 42 20 41.6 20 41 L 20 40 C 20 39.4 19.6 39 19 39 z M 25 39 C 24.4 39 24 39.4 24 40 L 24 41 C 24 41.6 24.4 42 25 42 C 25.6 42 26 41.6 26 41 L 26 40 C 26 39.4 25.6 39 25 39 z M 31 39 C 30.4 39 30 39.4 30 40 L 30 41 C 30 41.6 30.4 42 31 42 C 31.6 42 32 41.6 32 41 L 32 40 C 32 39.4 31.6 39 31 39 z M 37 39 C 36.4 39 36 39.4 36 40 L 36 41 C 36 41.6 36.4 42 37 42 C 37.6 42 38 41.6 38 41 L 38 40 C 38 39.4 37.6 39 37 39 z "/></svg>