<svg xmlns="http://www.w3.org/2000/svg" id="Layer_1" width="80" height="80" viewBox="0 0 80 80"><g id="g3342"><circle id="circle3918-0-8-6-9" cx="40" cy="40" r="40" fill="#578556"/><path id="XMLID_315_" fill="#fff" d="m 19,18 c -0.6,0 -1,0.4 -1,1 l 0,6 c 0,0.6 0.4,1 1,1 0.6,0 1,-0.4 1,-1 l 0,-5 5,0 c 0.6,0 1,-0.4 1,-1 0,-0.6 -0.4,-1 -1,-1 l -6,0 z m 36,0 c -0.6,0 -1,0.4 -1,1 0,0.6 0.4,1 1,1 l 5,0 0,5 c 0,0.6 0.4,1 1,1 0.6,0 1,-0.4 1,-1 l 0,-6 c 0,-0.6 -0.4,-1 -1,-1 l -6,0 z m -32,4 c -0.6,0 -1,0.4 -1,1 l 0,34 c 0,0.6 0.4,1 1,1 0.6,0 1,-0.4 1,-1 l 0,-34 c 0,-0.6 -0.4,-1 -1,-1 z m 4,0 c -0.6,0 -1,0.4 -1,1 l 0,34 c 0,0.6 0.4,1 1,1 0.6,0 1,-0.4 1,-1 l 0,-34 c 0,-0.6 -0.4,-1 -1,-1 z m 4,0 c -0.6,0 -1,0.4 -1,1 l 0,29 c 0,0.6 0.4,1 1,1 0.6,0 1,-0.4 1,-1 l 0,-29 c 0,-0.6 -0.4,-1 -1,-1 z m 4,0 c -0.6,0 -1,0.4 -1,1 l 0,29 c 0,0.6 0.4,1 1,1 0.6,0 1,-0.4 1,-1 l 0,-29 c 0,-0.6 -0.4,-1 -1,-1 z m 6,0 c -0.6,0 -1,0.4 -1,1 l 0,29 c 0,0.6 0.4,1 1,1 0.6,0 1,-0.4 1,-1 l 0,-29 c 0,-0.6 -0.4,-1 -1,-1 z m 6,0 c -0.6,0 -1,0.4 -1,1 l 0,29 c 0,0.6 0.4,1 1,1 0.6,0 1,-0.4 1,-1 l 0,-29 c 0,-0.6 -0.4,-1 -1,-1 z m 6,0 c -0.6,0 -1,0.4 -1,1 l 0,29 c 0,0.6 0.4,1 1,1 0.6,0 1,-0.4 1,-1 l 0,-29 c 0,-0.6 -0.4,-1 -1,-1 z m 4,0 c -0.6,0 -1,0.4 -1,1 l 0,34 c 0,0.6 0.4,1 1,1 0.6,0 1,-0.4 1,-1 l 0,-34 c 0,-0.6 -0.4,-1 -1,-1 z M 19,54 c -0.6,0 -1,0.4 -1,1 l 0,6 c 0,0.6 0.4,1 1,1 l 6,0 c 0.6,0 1,-0.4 1,-1 0,-0.6 -0.4,-1 -1,-1 l -5,0 0,-5 c 0,-0.6 -0.4,-1 -1,-1 z m 42,0 c -0.6,0 -1,0.4 -1,1 l 0,5 -5,0 c -0.6,0 -1,0.4 -1,1 0,0.6 0.4,1 1,1 l 6,0 c 0.6,0 1,-0.4 1,-1 l 0,-6 c 0,-0.6 -0.4,-1 -1,-1 z m -30,1 c -0.6,0 -1,0.4 -1,1 l 0,1 c 0,0.6 0.4,1 1,1 0.6,0 1,-0.4 1,-1 l 0,-1 c 0,-0.6 -0.4,-1 -1,-1 z m 4,0 c -0.6,0 -1,0.4 -1,1 l 0,1 c 0,0.6 0.4,1 1,1 0.6,0 1,-0.4 1,-1 l 0,-1 c 0,-0.6 -0.4,-1 -1,-1 z m 6,0 c -0.6,0 -1,0.4 -1,1 l 0,1 c 0,0.6 0.4,1 1,1 0.6,0 1,-0.4 1,-1 l 0,-1 c 0,-0.6 -0.4,-1 -1,-1 z m 6,0 c -0.6,0 -1,0.4 -1,1 l 0,1 c 0,0.6 0.4,1 1,1 0.6,0 1,-0.4 1,-1 l 0,-1 c 0,-0.6 -0.4,-1 -1,-1 z m 6,0 c -0.6,0 -1,0.4 -1,1 l 0,1 c 0,0.6 0.4,1 1,1 0.6,0 1,-0.4 1,-1 l 0,-1 c 0,-0.6 -0.4,-1 -1,-1 z"/></g></svg>